<?xml version="1.0" encoding="utf-8"?>
<svg xmlns="http://www.w3.org/2000/svg"
 viewBox="0 0 18 10">
<g><path fillRule="evenodd" d="M 11.97 1.93C 11.57 1.55 11.57 0.91 11.95 0.52 12.33 0.12 12.97 0.11 13.36 0.5 13.36 0.5 18 5 18 5 18 5 16.61 6.43 16.61 6.43 16.61 6.43 11.97 1.93 11.97 1.93M 16.61 3.56C 16.61 3.56 18 5 18 5 18 5 13.36 9.5 13.36 9.5 12.97 9.89 12.33 9.88 11.95 9.48 11.57 9.09 11.57 8.45 11.97 8.07 11.97 8.07 16.61 3.56 16.61 3.56M 16.61 6.43C 16.61 6.43 18 5 18 5 18 5 18 5 18 5 18 5 16.61 6.43 16.61 6.43 16.61 6.43 16.61 6.43 16.61 6.43ZM 18 5C 18 5 16.61 3.56 16.61 3.56 16.61 3.56 18 5 18 5 18 5 18 5 18 5 18 5 18 5 18 5Z" fill="rgb(0,233,255)"/><path fillRule="evenodd" d="M-0 6C-0 6-0 4-0 4-0 4 15 4 15 4 15 4 15 6 15 6 15 6-0 6-0 6" fill="rgb(0,233,255)"/></g></svg>